<svg width="10" height="11" viewBox="0 0 10 11" fill="none" xmlns="http://www.w3.org/2000/svg">
  <path fill-rule="evenodd" clip-rule="evenodd" d="M5 0.749996C5.16162 0.749996 5.31661 0.814198 5.43089 0.928476C5.54517 1.04276 5.60937 1.19775 5.60937 1.35937L5.60937 8.41953L8.22479 5.80289C8.28144 5.74624 8.34871 5.70129 8.42273 5.67063C8.49676 5.63997 8.5761 5.62419 8.65622 5.62419C8.73635 5.62419 8.81569 5.63997 8.88971 5.67063C8.96374 5.70129 9.031 5.74624 9.08766 5.80289C9.14431 5.85955 9.18925 5.92681 9.21992 6.00084C9.25058 6.07486 9.26636 6.1542 9.26636 6.23433C9.26636 6.31445 9.25058 6.39379 9.21992 6.46782C9.18925 6.54184 9.14431 6.6091 9.08766 6.66576L5.43144 10.322C5.37483 10.3787 5.30759 10.4238 5.23355 10.4545C5.15952 10.4852 5.08016 10.501 5 10.501C4.91985 10.501 4.84048 10.4852 4.76645 10.4545C4.69242 10.4238 4.62517 10.3787 4.56857 10.322L0.912349 6.66576C0.797925 6.55134 0.733643 6.39615 0.733643 6.23433C0.733643 6.07251 0.797925 5.91732 0.912349 5.80289C1.02677 5.68847 1.18196 5.62419 1.34378 5.62419C1.5056 5.62419 1.66079 5.68847 1.77522 5.80289L4.39063 8.41953L4.39063 1.35937C4.39063 1.19775 4.45483 1.04276 4.56911 0.928476C4.68339 0.814198 4.83839 0.749996 5 0.749996Z" fill="#565656"/>
</svg>
