<svg width="25" height="25" viewBox="0 0 25 25" fill="none" xmlns="http://www.w3.org/2000/svg">
<path fill-rule="evenodd" clip-rule="evenodd" d="M20.4907 12.4998C20.4907 12.7656 20.3828 13.0206 20.1907 13.2085C19.9985 13.3965 19.738 13.5021 19.4663 13.5021L7.59715 13.5021L11.9961 17.804C12.0913 17.8972 12.1669 18.0078 12.2184 18.1296C12.27 18.2513 12.2965 18.3818 12.2965 18.5136C12.2965 18.6454 12.27 18.7759 12.2184 18.8977C12.1669 19.0194 12.0913 19.1301 11.9961 19.2233C11.9008 19.3164 11.7878 19.3904 11.6633 19.4408C11.5389 19.4912 11.4055 19.5172 11.2708 19.5172C11.1361 19.5172 11.0027 19.4912 10.8783 19.4408C10.7538 19.3904 10.6407 19.3164 10.5455 19.2233L4.39887 13.2094C4.30346 13.1163 4.22777 13.0057 4.17613 12.884C4.12448 12.7622 4.0979 12.6316 4.0979 12.4998C4.0979 12.368 4.12448 12.2374 4.17613 12.1157C4.22777 11.9939 4.30346 11.8833 4.39887 11.7902L10.5455 5.77636C10.7378 5.58816 10.9987 5.48242 11.2708 5.48242C11.5428 5.48242 11.8037 5.58816 11.9961 5.77636C12.1884 5.96457 12.2965 6.21983 12.2965 6.48599C12.2965 6.75216 12.1884 7.00742 11.9961 7.19562L7.59715 11.4975L19.4663 11.4975C19.738 11.4975 19.9985 11.6031 20.1907 11.7911C20.3828 11.979 20.4907 12.234 20.4907 12.4998Z" fill="white"/>
</svg>
